<svg xmlns="http://www.w3.org/2000/svg" xml:lang="en" height="131.94580000000002pt" width="251.06691999999995pt" viewBox="-42.72499999999999 -127.5158 251.06691999999995 131.94580000000002"><circle cx="2.975891721928068e-15" cy="-48.599999999999994" r="16.2" style="stroke:white;fill:none;stroke-width:2;" /><path d="M 75.2 -82.29 a 8.1 12.149999999999999 -90 0 1 12.079999999999998 -4.159999999999997" style="stroke:white;fill:none;stroke-width:2;" /><path d="M 93.3367676210417 -85.74044971639111 L 86.99478532538687 -84.03922646190608 L 87.56217798808031 -88.86599200068271 Z" style="stroke:white;fill:white;stroke-linecap:butt;stroke-linejoin:miter;" /><circle cx="2.975891721928068e-15" cy="-48.599999999999994" r="16.2" style="stroke:white;fill:none;stroke-width:2;" /><path d="M 75.2 -82.29 a 8.1 12.149999999999999 -90 0 1 12.079999999999998 -4.159999999999997" style="stroke:white;fill:none;stroke-width:2;" /><path d="M 93.3367676210417 -85.74044971639111 L 86.99478532538687 -84.03922646190608 L 87.56217798808031 -88.86599200068271 Z" style="stroke:white;fill:white;stroke-linecap:butt;stroke-linejoin:miter;" /><path d="M 0.0,-0.0 L 1.9839278146187122e-15,-32.4 L 1.9839278146187122e-15,-32.4 M 3.9678556292374245e-15,-64.8 L 3.9678556292374245e-15,-64.8 L 5.951783443856136e-15,-97.19999999999999" style="stroke:white;fill:none;stroke-width:2;stroke-linecap:round;stroke-linejoin:round;" /><path d="M 3.240000000000003,-40.5 L -3.2399999999999975,-40.5" style="stroke:white;fill:none;stroke-width:2;stroke-linecap:round;stroke-linejoin:round;" /><path d="M 3.2734808941208748e-15,-53.459999999999994 L 3.670266457044618e-15,-59.94" style="stroke:white;fill:none;stroke-width:2;stroke-linecap:round;stroke-linejoin:round;" /><path d="M 3.2400000000000038,-56.699999999999996 L -3.2399999999999967,-56.699999999999996" style="stroke:white;fill:none;stroke-width:2;stroke-linecap:round;stroke-linejoin:round;" /><path d="M 5.951783443856136e-15,-97.19999999999999 L 36.45,-97.19999999999999 L 72.89999999999999,-97.19999999999999" style="stroke:white;fill:none;stroke-width:2;stroke-linecap:round;stroke-linejoin:round;" /><path d="M 85.86,-68.688 M 82.61999999999999,-76.464 L 77.75999999999999,-91.368 M 72.89999999999999,-101.088" style="stroke:white;fill:none;stroke-width:2;stroke-linecap:round;stroke-linejoin:round;" /><path d="M 98.82,-97.19999999999999 L 135.26999999999998,-97.19999999999999 L 171.72,-97.19999999999999" style="stroke:white;fill:none;stroke-width:2;stroke-linecap:round;stroke-linejoin:round;" /><path d="M 171.72,-97.19999999999999 L 171.72,-64.8 L 179.82,-62.1 L 163.61999999999998,-56.699999999999996 L 179.82,-51.300000000000004 L 163.61999999999998,-45.9 L 179.82,-40.5 L 163.61999999999998,-35.1 L 171.72,-32.4 L 171.71999999999997,-0.0" style="stroke:white;fill:none;stroke-width:2;stroke-linecap:round;stroke-linejoin:round;" /><path d="M 171.71999999999997,-0.0 L 85.85999999999999,-1.0514817417479173e-14 L 0.0,-2.1029634834958345e-14" style="stroke:white;fill:none;stroke-width:2;stroke-linecap:round;stroke-linejoin:round;" /><path d="M 85.86,-72.57600000000001 L 85.86,-39.20400000000001 M 93.96,-39.20400000000001 L 77.75999999999999,-39.20400000000001 M 93.96,-33.37200000000001 L 77.75999999999999,-33.37200000000001 M 85.86,-33.37200000000001 L 85.86,-0.0" style="stroke:white;fill:none;stroke-width:2;stroke-linecap:round;stroke-linejoin:round;" /><path d="M 0.0,-0.0 L 1.9839278146187122e-15,-32.4 L 1.9839278146187122e-15,-32.4 M 3.9678556292374245e-15,-64.8 L 3.9678556292374245e-15,-64.8 L 5.951783443856136e-15,-97.19999999999999" style="stroke:white;fill:none;stroke-width:2;stroke-linecap:round;stroke-linejoin:round;" /><path d="M 3.240000000000003,-40.5 L -3.2399999999999975,-40.5" style="stroke:white;fill:none;stroke-width:2;stroke-linecap:round;stroke-linejoin:round;" /><path d="M 3.2734808941208748e-15,-53.459999999999994 L 3.670266457044618e-15,-59.94" style="stroke:white;fill:none;stroke-width:2;stroke-linecap:round;stroke-linejoin:round;" /><path d="M 3.2400000000000038,-56.699999999999996 L -3.2399999999999967,-56.699999999999996" style="stroke:white;fill:none;stroke-width:2;stroke-linecap:round;stroke-linejoin:round;" /><path d="M 5.951783443856136e-15,-97.19999999999999 L 36.45,-97.19999999999999 L 72.89999999999999,-97.19999999999999" style="stroke:white;fill:none;stroke-width:2;stroke-linecap:round;stroke-linejoin:round;" /><path d="M 85.86,-68.688 M 82.61999999999999,-76.464 L 77.75999999999999,-91.368 M 72.89999999999999,-101.088" style="stroke:white;fill:none;stroke-width:2;stroke-linecap:round;stroke-linejoin:round;" /><path d="M 98.82,-97.19999999999999 L 135.26999999999998,-97.19999999999999 L 171.72,-97.19999999999999" style="stroke:white;fill:none;stroke-width:2;stroke-linecap:round;stroke-linejoin:round;" /><path d="M 171.72,-97.19999999999999 L 171.72,-64.8 L 179.82,-62.1 L 163.61999999999998,-56.699999999999996 L 179.82,-51.300000000000004 L 163.61999999999998,-45.9 L 179.82,-40.5 L 163.61999999999998,-35.1 L 171.72,-32.4 L 171.71999999999997,-0.0" style="stroke:white;fill:none;stroke-width:2;stroke-linecap:round;stroke-linejoin:round;" /><path d="M 171.71999999999997,-0.0 L 85.85999999999999,-1.0514817417479173e-14 L 0.0,-2.1029634834958345e-14" style="stroke:white;fill:none;stroke-width:2;stroke-linecap:round;stroke-linejoin:round;" /><path d="M 85.86,-72.57600000000001 L 85.86,-39.20400000000001 M 93.96,-39.20400000000001 L 77.75999999999999,-39.20400000000001 M 93.96,-33.37200000000001 L 77.75999999999999,-33.37200000000001 M 85.86,-33.37200000000001 L 85.86,-0.0" style="stroke:white;fill:none;stroke-width:2;stroke-linecap:round;stroke-linejoin:round;" /><g><g><g><symbol id="STIXTwoMath-Regular_4248" width="459" height="51.216" viewBox="0 -31.524 459 51.216"><path d="M 2.868 0.144 Q 1.932 0.144, 1.32 -0.18 Q 0.708 -0.504, 0.3 -0.888 L 0.804 -1.548 Q 1.152 -1.212, 1.614 -0.954 Q 2.076 -0.696, 2.772 -0.696 Q 3.48 -0.696, 3.978 -1.158 Q 4.476 -1.62, 4.476 -2.4 Q 4.476 -3.18, 4.026 -3.606 Q 3.576 -4.032, 2.832 -4.032 Q 2.424 -4.032, 2.13 -3.918 Q 1.836 -3.804, 1.488 -3.576 L 0.936 -3.924 L 1.2 -7.56 L 5.112 -7.56 L 5.112 -6.684 L 2.088 -6.684 L 1.884 -4.488 Q 2.16 -4.632, 2.436 -4.716 Q 2.712 -4.8, 3.084 -4.8 Q 3.756 -4.8, 4.302 -4.548 Q 4.848 -4.296, 5.178 -3.774 Q 5.508 -3.252, 5.508 -2.424 Q 5.508 -1.608, 5.136 -1.032 Q 4.764 -0.456, 4.158 -0.156 Q 3.552 0.144, 2.868 0.144 Z " /></symbol><use href="#STIXTwoMath-Regular_4248" transform="translate(-33.93 -80.646) scale(1.167)" fill="white" /><symbol id="STIXTwoMath-Regular_3680" width="527" height="51.216" viewBox="0 -31.524 527 51.216"><path d="M 2.58 0 L 0.012 -7.884 L 1.104 -7.884 L 2.4 -3.636 Q 2.604 -2.94, 2.772 -2.334 Q 2.94 -1.728, 3.168 -1.032 L 3.228 -1.032 Q 3.444 -1.728, 3.618 -2.334 Q 3.792 -2.94, 3.996 -3.636 L 5.28 -7.884 L 6.324 -7.884 L 3.768 0 Z " /></symbol><use href="#STIXTwoMath-Regular_3680" transform="translate(-26.818 -80.646) scale(1.167)" fill="white" /></g></g></g><circle cx="85.86" cy="-72.57600000000001" r="3.888" style="stroke:white;fill:white;stroke-width:2;" /><circle cx="98.82" cy="-97.19999999999999" r="3.888" style="stroke:white;fill:white;stroke-width:2;" /><circle cx="72.89999999999999" cy="-97.19999999999999" r="3.888" style="stroke:white;fill:white;stroke-width:2;" /><g><g><g><symbol id="STIXTwoMath-Regular_3347" width="317" height="51.216" viewBox="0 -31.524 317 51.216"><path d="M 3.804 -5.604 L 3.708 -5.136 L 2.496 -5.136 L 1.788 -1.56 Q 1.788 -1.56, 1.746 -1.338 Q 1.704 -1.116, 1.704 -0.96 Q 1.704 -0.864, 1.746 -0.786 Q 1.788 -0.708, 1.908 -0.708 Q 2.172 -0.708, 2.394 -0.864 Q 2.616 -1.02, 2.928 -1.428 L 3.168 -1.248 Q 3 -1.02, 2.76 -0.696 Q 2.52 -0.372, 2.184 -0.132 Q 1.848 0.108, 1.368 0.108 Q 0.996 0.108, 0.816 -0.072 Q 0.636 -0.252, 0.636 -0.528 Q 0.636 -0.684, 0.672 -0.906 Q 0.708 -1.128, 0.72 -1.212 L 1.536 -5.136 L 0.852 -5.136 L 0.9 -5.388 Q 1.284 -5.592, 1.542 -5.784 Q 1.8 -5.976, 2.034 -6.288 Q 2.268 -6.6, 2.568 -7.116 L 2.928 -7.116 L 2.592 -5.604 Z " /></symbol><use href="#STIXTwoMath-Regular_3347" transform="translate(71.1 -143.36) scale(1.167)" fill="white" /><symbol id="STIXTwoMath-Regular_1202" width="658" height="51.216" viewBox="0 -31.524 658 51.216"><path d="M 7.896 -3.924 L 0.744 -3.924 L 0.744 -4.74 L 7.896 -4.74 Z M 7.896 -1.476 L 0.744 -1.476 L 0.744 -2.28 L 7.896 -2.28 Z " /></symbol><use href="#STIXTwoMath-Regular_1202" transform="translate(79.721 -143.36) scale(1.167)" fill="white" /><symbol id="STIXTwoMath-Regular_1137" width="468" height="51.216" viewBox="0 -31.524 468 51.216"><path d="M 5.616 -3.804 Q 5.616 -3.036, 5.466 -2.328 Q 5.316 -1.62, 4.998 -1.068 Q 4.68 -0.516, 4.176 -0.192 Q 3.672 0.132, 2.964 0.132 Q 2.244 0.132, 1.74 -0.186 Q 1.236 -0.504, 0.924 -1.056 Q 0.612 -1.608, 0.468 -2.328 Q 0.324 -3.048, 0.324 -3.84 Q 0.324 -4.98, 0.63 -5.85 Q 0.936 -6.72, 1.53 -7.212 Q 2.124 -7.704, 2.988 -7.704 Q 3.768 -7.704, 4.356 -7.242 Q 4.944 -6.78, 5.28 -5.91 Q 5.616 -5.04, 5.616 -3.804 Z M 4.452 -3.732 Q 4.452 -5.556, 4.074 -6.426 Q 3.696 -7.296, 2.952 -7.296 Q 2.244 -7.296, 1.86 -6.432 Q 1.476 -5.568, 1.476 -3.78 Q 1.476 -2.04, 1.86 -1.17 Q 2.244 -0.3, 2.964 -0.3 Q 3.672 -0.3, 4.062 -1.152 Q 4.452 -2.004, 4.452 -3.732 Z " /></symbol><use href="#STIXTwoMath-Regular_1137" transform="translate(93.69 -143.36) scale(1.167)" fill="white" /></g></g></g><g><g><g><symbol id="STIXTwoMath-Regular_1138" width="426" height="51.216" viewBox="0 -31.524 426 51.216"><path d="M 5.112 0 L 0.96 0 L 0.96 -0.336 Q 1.812 -0.336, 2.16 -0.516 Q 2.508 -0.696, 2.508 -1.14 L 2.508 -6.216 Q 2.508 -6.528, 2.424 -6.666 Q 2.34 -6.804, 2.112 -6.804 Q 1.932 -6.804, 1.548 -6.756 Q 1.164 -6.708, 0.888 -6.612 L 0.888 -7.008 L 3.216 -7.668 L 3.564 -7.668 L 3.564 -1.14 Q 3.564 -0.696, 3.924 -0.516 Q 4.284 -0.336, 5.112 -0.336 Z " /></symbol><use href="#STIXTwoMath-Regular_1138" transform="translate(128.712 -82.872) scale(1.167)" fill="white" /><symbol id="STIXTwoMath-Regular_1137" width="468" height="51.216" viewBox="0 -31.524 468 51.216"><path d="M 5.616 -3.804 Q 5.616 -3.036, 5.466 -2.328 Q 5.316 -1.62, 4.998 -1.068 Q 4.68 -0.516, 4.176 -0.192 Q 3.672 0.132, 2.964 0.132 Q 2.244 0.132, 1.74 -0.186 Q 1.236 -0.504, 0.924 -1.056 Q 0.612 -1.608, 0.468 -2.328 Q 0.324 -3.048, 0.324 -3.84 Q 0.324 -4.98, 0.63 -5.85 Q 0.936 -6.72, 1.53 -7.212 Q 2.124 -7.704, 2.988 -7.704 Q 3.768 -7.704, 4.356 -7.242 Q 4.944 -6.78, 5.28 -5.91 Q 5.616 -5.04, 5.616 -3.804 Z M 4.452 -3.732 Q 4.452 -5.556, 4.074 -6.426 Q 3.696 -7.296, 2.952 -7.296 Q 2.244 -7.296, 1.86 -6.432 Q 1.476 -5.568, 1.476 -3.78 Q 1.476 -2.04, 1.86 -1.17 Q 2.244 -0.3, 2.964 -0.3 Q 3.672 -0.3, 4.062 -1.152 Q 4.452 -2.004, 4.452 -3.732 Z " /></symbol><use href="#STIXTwoMath-Regular_1137" transform="translate(135.642 -82.872) scale(1.167)" fill="white" /><use href="#STIXTwoMath-Regular_1137" transform="translate(142.572 -82.872) scale(1.167)" fill="white" /><symbol id="STIXTwoMath-Regular_868" width="731" height="51.216" viewBox="0 -31.524 731 51.216"><path d="M 8.496 0 L 5.364 0 L 5.364 -0.864 Q 5.928 -1.32, 6.318 -1.95 Q 6.708 -2.58, 6.906 -3.282 Q 7.104 -3.984, 7.104 -4.644 Q 7.104 -6, 6.456 -6.762 Q 5.808 -7.524, 4.704 -7.524 Q 3.564 -7.524, 2.904 -6.75 Q 2.244 -5.976, 2.244 -4.644 Q 2.244 -3.996, 2.436 -3.282 Q 2.628 -2.568, 3.018 -1.932 Q 3.408 -1.296, 3.984 -0.852 L 3.984 0 L 0.816 0 L 0.564 -2.124 L 0.912 -2.124 Q 1.02 -1.716, 1.122 -1.464 Q 1.224 -1.212, 1.41 -1.092 Q 1.596 -0.972, 1.932 -0.972 L 3.024 -0.972 L 3.024 -1.044 Q 2.688 -1.296, 2.322 -1.626 Q 1.956 -1.956, 1.644 -2.388 Q 1.332 -2.82, 1.14 -3.39 Q 0.948 -3.96, 0.948 -4.692 Q 0.948 -5.688, 1.428 -6.438 Q 1.908 -7.188, 2.76 -7.608 Q 3.612 -8.028, 4.716 -8.028 Q 5.832 -8.028, 6.66 -7.608 Q 7.488 -7.188, 7.944 -6.438 Q 8.4 -5.688, 8.4 -4.704 Q 8.4 -3.972, 8.196 -3.402 Q 7.992 -2.832, 7.674 -2.394 Q 7.356 -1.956, 7.002 -1.626 Q 6.648 -1.296, 6.336 -1.044 L 6.336 -0.972 L 7.344 -0.972 Q 7.704 -0.972, 7.89 -1.092 Q 8.076 -1.212, 8.19 -1.47 Q 8.304 -1.728, 8.424 -2.124 L 8.772 -2.124 Z " /></symbol><use href="#STIXTwoMath-Regular_868" transform="translate(149.502 -82.872) scale(1.167)" fill="white" /></g></g></g><g><g><g><symbol id="STIXTwoMath-Regular_1196" width="658" height="51.216" viewBox="0 -31.524 658 51.216"><path d="M 7.896 -2.7 L 4.752 -2.7 L 4.752 0.48 L 3.888 0.48 L 3.888 -2.7 L 0.744 -2.7 L 0.744 -3.516 L 3.888 -3.516 L 3.888 -6.696 L 4.752 -6.696 L 4.752 -3.516 L 7.896 -3.516 Z " /></symbol><use href="#STIXTwoMath-Regular_1196" transform="translate(183.06 -105.338) scale(1.167)" fill="white" /></g></g></g><g><g><g><symbol id="STIXTwoMath-Regular_3350" width="479" height="51.216" viewBox="0 -31.524 479 51.216"><path d="M 2.4 -5.712 L 2.664 -5.712 L 2.1 -3.408 Q 2.016 -3.096, 1.926 -2.658 Q 1.836 -2.22, 1.836 -1.812 Q 1.836 -1.344, 2.028 -1.002 Q 2.22 -0.66, 2.772 -0.66 Q 3.384 -0.66, 3.828 -0.954 Q 4.272 -1.248, 4.554 -1.704 Q 4.836 -2.16, 4.974 -2.664 Q 5.112 -3.168, 5.112 -3.588 Q 5.112 -3.9, 5.004 -4.128 Q 4.896 -4.356, 4.746 -4.536 Q 4.596 -4.716, 4.488 -4.884 Q 4.38 -5.052, 4.38 -5.244 Q 4.38 -5.484, 4.512 -5.616 Q 4.644 -5.748, 4.836 -5.748 Q 5.244 -5.748, 5.496 -5.34 Q 5.748 -4.932, 5.748 -4.296 Q 5.748 -3.744, 5.61 -3.138 Q 5.472 -2.532, 5.196 -1.956 Q 4.92 -1.38, 4.512 -0.912 Q 4.104 -0.444, 3.576 -0.168 Q 3.048 0.108, 2.4 0.108 Q 1.8 0.108, 1.464 -0.132 Q 1.128 -0.372, 0.99 -0.768 Q 0.852 -1.164, 0.852 -1.62 Q 0.852 -2.052, 0.936 -2.508 Q 1.02 -2.964, 1.116 -3.336 L 1.356 -4.248 Q 1.38 -4.344, 1.428 -4.536 Q 1.476 -4.728, 1.476 -4.908 Q 1.476 -5.064, 1.416 -5.172 Q 1.356 -5.28, 1.188 -5.28 Q 1.044 -5.28, 0.84 -5.262 Q 0.636 -5.244, 0.636 -5.244 L 0.636 -5.58 Z " /></symbol><use href="#STIXTwoMath-Regular_3350" transform="translate(183.06 -85.707) scale(1.167)" fill="white" /><symbol id="STIXTwoMath-Regular_3342" width="460" height="51.216" viewBox="0 -31.524 460 51.216"><path d="M 5.52 -3.564 Q 5.52 -2.556, 5.106 -1.722 Q 4.692 -0.888, 3.96 -0.384 Q 3.228 0.12, 2.268 0.12 Q 1.572 0.12, 1.14 -0.192 Q 0.708 -0.504, 0.51 -1.008 Q 0.312 -1.512, 0.312 -2.1 Q 0.312 -2.796, 0.546 -3.45 Q 0.78 -4.104, 1.206 -4.62 Q 1.632 -5.136, 2.22 -5.442 Q 2.808 -5.748, 3.516 -5.748 Q 4.032 -5.748, 4.488 -5.502 Q 4.944 -5.256, 5.232 -4.77 Q 5.52 -4.284, 5.52 -3.564 Z M 4.428 -3.684 Q 4.428 -4.128, 4.326 -4.506 Q 4.224 -4.884, 4.002 -5.112 Q 3.78 -5.34, 3.42 -5.34 Q 2.904 -5.34, 2.442 -4.95 Q 1.98 -4.56, 1.692 -3.816 Q 1.404 -3.072, 1.404 -1.992 Q 1.404 -1.56, 1.488 -1.17 Q 1.572 -0.78, 1.788 -0.54 Q 2.004 -0.3, 2.4 -0.3 Q 3 -0.3, 3.456 -0.714 Q 3.912 -1.128, 4.17 -1.884 Q 4.428 -2.64, 4.428 -3.684 Z " /></symbol><use href="#STIXTwoMath-Regular_3342" transform="translate(189.766 -71.608) scale(0.817)" fill="white" /></g></g></g><g><g><g><symbol id="STIXTwoMath-Regular_1075" width="270" height="51.216" viewBox="0 -31.524 270 51.216"><path d="M 3.24 -2.616 L 0.54 -2.616 L 0.54 -3.396 L 3.24 -3.396 Z " /></symbol><use href="#STIXTwoMath-Regular_1075" transform="translate(183.06 -53.126) scale(1.167)" fill="white" /></g></g></g><circle cx="85.86" cy="-0.0" r="2.4299999999999997" style="stroke:white;fill:white;stroke-width:2;" /><g><g><g><symbol id="STIXTwoMath-Regular_4244" width="313" height="51.216" viewBox="0 -31.524 313 51.216"><path d="M 3.756 0 L 2.76 0 L 2.76 -6.348 L 1.212 -6.348 L 1.212 -6.996 Q 1.848 -7.092, 2.256 -7.23 Q 2.664 -7.368, 3 -7.56 L 3.756 -7.56 Z " /></symbol><use href="#STIXTwoMath-Regular_4244" transform="translate(52.596 -69.989) scale(1.167)" fill="white" /></g><g><symbol id="STIXTwoMath-Regular_896" width="557" height="51.216" viewBox="0 -31.524 557 51.216"><path d="M 5.472 -5.568 L 4.956 -2.604 Q 4.956 -2.556, 4.968 -2.376 Q 4.98 -2.196, 4.992 -2.064 Q 5.04 -1.38, 5.22 -1.074 Q 5.4 -0.768, 5.736 -0.768 Q 6.024 -0.768, 6.186 -0.912 Q 6.348 -1.056, 6.48 -1.236 L 6.684 -1.104 Q 6.588 -0.828, 6.414 -0.54 Q 6.24 -0.252, 5.97 -0.066 Q 5.7 0.12, 5.304 0.12 Q 4.86 0.12, 4.698 -0.162 Q 4.536 -0.444, 4.464 -0.864 Q 4.44 -1.044, 4.41 -1.266 Q 4.38 -1.488, 4.332 -1.968 L 4.26 -1.968 Q 4.068 -1.092, 3.798 -0.63 Q 3.528 -0.168, 3.222 -0.006 Q 2.916 0.156, 2.616 0.156 Q 2.292 0.156, 2.07 -0.018 Q 1.848 -0.192, 1.71 -0.426 Q 1.572 -0.66, 1.488 -0.828 L 1.428 -0.828 Q 1.44 -0.348, 1.452 0.102 Q 1.464 0.552, 1.506 1.068 Q 1.548 1.584, 1.62 2.292 L 0.72 2.604 L 0.528 2.568 Q 0.54 1.728, 0.57 1.038 Q 0.6 0.348, 0.678 -0.324 Q 0.756 -0.996, 0.9 -1.788 L 0.888 -5.64 L 1.968 -5.676 L 2.016 -5.58 L 1.584 -2.604 Q 1.584 -2.604, 1.578 -2.526 Q 1.572 -2.448, 1.572 -2.34 Q 1.572 -1.98, 1.71 -1.638 Q 1.848 -1.296, 2.094 -1.068 Q 2.34 -0.84, 2.664 -0.84 Q 2.988 -0.84, 3.252 -1.068 Q 3.516 -1.296, 3.72 -1.644 Q 3.924 -1.992, 4.062 -2.352 Q 4.2 -2.712, 4.272 -3 Q 4.344 -3.288, 4.344 -3.372 L 4.38 -5.64 L 5.412 -5.676 Z " /></symbol><use href="#STIXTwoMath-Regular_896" transform="translate(59.708 -69.989) scale(1.167)" fill="white" /></g><g><symbol id="STIXTwoMath-Regular_3664" width="479" height="51.216" viewBox="0 -31.524 479 51.216"><path d="M 1.104 0 L 1.104 -7.884 L 5.748 -7.884 L 5.748 -7.02 L 2.136 -7.02 L 2.136 -4.38 L 5.196 -4.38 L 5.196 -3.516 L 2.136 -3.516 L 2.136 0 Z " /></symbol><use href="#STIXTwoMath-Regular_3664" transform="translate(67.436 -69.989) scale(1.167)" fill="white" /></g></g></g><g><g><g><symbol id="STIXTwoMath-Regular_4248" width="459" height="51.216" viewBox="0 -31.524 459 51.216"><path d="M 2.868 0.144 Q 1.932 0.144, 1.32 -0.18 Q 0.708 -0.504, 0.3 -0.888 L 0.804 -1.548 Q 1.152 -1.212, 1.614 -0.954 Q 2.076 -0.696, 2.772 -0.696 Q 3.48 -0.696, 3.978 -1.158 Q 4.476 -1.62, 4.476 -2.4 Q 4.476 -3.18, 4.026 -3.606 Q 3.576 -4.032, 2.832 -4.032 Q 2.424 -4.032, 2.13 -3.918 Q 1.836 -3.804, 1.488 -3.576 L 0.936 -3.924 L 1.2 -7.56 L 5.112 -7.56 L 5.112 -6.684 L 2.088 -6.684 L 1.884 -4.488 Q 2.16 -4.632, 2.436 -4.716 Q 2.712 -4.8, 3.084 -4.8 Q 3.756 -4.8, 4.302 -4.548 Q 4.848 -4.296, 5.178 -3.774 Q 5.508 -3.252, 5.508 -2.424 Q 5.508 -1.608, 5.136 -1.032 Q 4.764 -0.456, 4.158 -0.156 Q 3.552 0.144, 2.868 0.144 Z " /></symbol><use href="#STIXTwoMath-Regular_4248" transform="translate(-33.93 -80.646) scale(1.167)" fill="white" /><symbol id="STIXTwoMath-Regular_3680" width="527" height="51.216" viewBox="0 -31.524 527 51.216"><path d="M 2.58 0 L 0.012 -7.884 L 1.104 -7.884 L 2.4 -3.636 Q 2.604 -2.94, 2.772 -2.334 Q 2.94 -1.728, 3.168 -1.032 L 3.228 -1.032 Q 3.444 -1.728, 3.618 -2.334 Q 3.792 -2.94, 3.996 -3.636 L 5.28 -7.884 L 6.324 -7.884 L 3.768 0 Z " /></symbol><use href="#STIXTwoMath-Regular_3680" transform="translate(-26.818 -80.646) scale(1.167)" fill="white" /></g></g></g><circle cx="85.86" cy="-72.57600000000001" r="3.888" style="stroke:white;fill:white;stroke-width:2;" /><circle cx="98.82" cy="-97.19999999999999" r="3.888" style="stroke:white;fill:white;stroke-width:2;" /><circle cx="72.89999999999999" cy="-97.19999999999999" r="3.888" style="stroke:white;fill:white;stroke-width:2;" /><g><g><g><symbol id="STIXTwoMath-Regular_3347" width="317" height="51.216" viewBox="0 -31.524 317 51.216"><path d="M 3.804 -5.604 L 3.708 -5.136 L 2.496 -5.136 L 1.788 -1.56 Q 1.788 -1.56, 1.746 -1.338 Q 1.704 -1.116, 1.704 -0.96 Q 1.704 -0.864, 1.746 -0.786 Q 1.788 -0.708, 1.908 -0.708 Q 2.172 -0.708, 2.394 -0.864 Q 2.616 -1.02, 2.928 -1.428 L 3.168 -1.248 Q 3 -1.02, 2.76 -0.696 Q 2.52 -0.372, 2.184 -0.132 Q 1.848 0.108, 1.368 0.108 Q 0.996 0.108, 0.816 -0.072 Q 0.636 -0.252, 0.636 -0.528 Q 0.636 -0.684, 0.672 -0.906 Q 0.708 -1.128, 0.72 -1.212 L 1.536 -5.136 L 0.852 -5.136 L 0.9 -5.388 Q 1.284 -5.592, 1.542 -5.784 Q 1.8 -5.976, 2.034 -6.288 Q 2.268 -6.6, 2.568 -7.116 L 2.928 -7.116 L 2.592 -5.604 Z " /></symbol><use href="#STIXTwoMath-Regular_3347" transform="translate(71.1 -143.36) scale(1.167)" fill="white" /><symbol id="STIXTwoMath-Regular_1202" width="658" height="51.216" viewBox="0 -31.524 658 51.216"><path d="M 7.896 -3.924 L 0.744 -3.924 L 0.744 -4.74 L 7.896 -4.74 Z M 7.896 -1.476 L 0.744 -1.476 L 0.744 -2.28 L 7.896 -2.28 Z " /></symbol><use href="#STIXTwoMath-Regular_1202" transform="translate(79.721 -143.36) scale(1.167)" fill="white" /><symbol id="STIXTwoMath-Regular_1137" width="468" height="51.216" viewBox="0 -31.524 468 51.216"><path d="M 5.616 -3.804 Q 5.616 -3.036, 5.466 -2.328 Q 5.316 -1.62, 4.998 -1.068 Q 4.68 -0.516, 4.176 -0.192 Q 3.672 0.132, 2.964 0.132 Q 2.244 0.132, 1.74 -0.186 Q 1.236 -0.504, 0.924 -1.056 Q 0.612 -1.608, 0.468 -2.328 Q 0.324 -3.048, 0.324 -3.84 Q 0.324 -4.98, 0.63 -5.85 Q 0.936 -6.72, 1.53 -7.212 Q 2.124 -7.704, 2.988 -7.704 Q 3.768 -7.704, 4.356 -7.242 Q 4.944 -6.78, 5.28 -5.91 Q 5.616 -5.04, 5.616 -3.804 Z M 4.452 -3.732 Q 4.452 -5.556, 4.074 -6.426 Q 3.696 -7.296, 2.952 -7.296 Q 2.244 -7.296, 1.86 -6.432 Q 1.476 -5.568, 1.476 -3.78 Q 1.476 -2.04, 1.86 -1.17 Q 2.244 -0.3, 2.964 -0.3 Q 3.672 -0.3, 4.062 -1.152 Q 4.452 -2.004, 4.452 -3.732 Z " /></symbol><use href="#STIXTwoMath-Regular_1137" transform="translate(93.69 -143.36) scale(1.167)" fill="white" /></g></g></g><g><g><g><symbol id="STIXTwoMath-Regular_1138" width="426" height="51.216" viewBox="0 -31.524 426 51.216"><path d="M 5.112 0 L 0.96 0 L 0.96 -0.336 Q 1.812 -0.336, 2.16 -0.516 Q 2.508 -0.696, 2.508 -1.14 L 2.508 -6.216 Q 2.508 -6.528, 2.424 -6.666 Q 2.34 -6.804, 2.112 -6.804 Q 1.932 -6.804, 1.548 -6.756 Q 1.164 -6.708, 0.888 -6.612 L 0.888 -7.008 L 3.216 -7.668 L 3.564 -7.668 L 3.564 -1.14 Q 3.564 -0.696, 3.924 -0.516 Q 4.284 -0.336, 5.112 -0.336 Z " /></symbol><use href="#STIXTwoMath-Regular_1138" transform="translate(128.712 -82.872) scale(1.167)" fill="white" /><symbol id="STIXTwoMath-Regular_1137" width="468" height="51.216" viewBox="0 -31.524 468 51.216"><path d="M 5.616 -3.804 Q 5.616 -3.036, 5.466 -2.328 Q 5.316 -1.62, 4.998 -1.068 Q 4.68 -0.516, 4.176 -0.192 Q 3.672 0.132, 2.964 0.132 Q 2.244 0.132, 1.74 -0.186 Q 1.236 -0.504, 0.924 -1.056 Q 0.612 -1.608, 0.468 -2.328 Q 0.324 -3.048, 0.324 -3.84 Q 0.324 -4.98, 0.63 -5.85 Q 0.936 -6.72, 1.53 -7.212 Q 2.124 -7.704, 2.988 -7.704 Q 3.768 -7.704, 4.356 -7.242 Q 4.944 -6.78, 5.28 -5.91 Q 5.616 -5.04, 5.616 -3.804 Z M 4.452 -3.732 Q 4.452 -5.556, 4.074 -6.426 Q 3.696 -7.296, 2.952 -7.296 Q 2.244 -7.296, 1.86 -6.432 Q 1.476 -5.568, 1.476 -3.78 Q 1.476 -2.04, 1.86 -1.17 Q 2.244 -0.3, 2.964 -0.3 Q 3.672 -0.3, 4.062 -1.152 Q 4.452 -2.004, 4.452 -3.732 Z " /></symbol><use href="#STIXTwoMath-Regular_1137" transform="translate(135.642 -82.872) scale(1.167)" fill="white" /><use href="#STIXTwoMath-Regular_1137" transform="translate(142.572 -82.872) scale(1.167)" fill="white" /><symbol id="STIXTwoMath-Regular_868" width="731" height="51.216" viewBox="0 -31.524 731 51.216"><path d="M 8.496 0 L 5.364 0 L 5.364 -0.864 Q 5.928 -1.32, 6.318 -1.95 Q 6.708 -2.58, 6.906 -3.282 Q 7.104 -3.984, 7.104 -4.644 Q 7.104 -6, 6.456 -6.762 Q 5.808 -7.524, 4.704 -7.524 Q 3.564 -7.524, 2.904 -6.75 Q 2.244 -5.976, 2.244 -4.644 Q 2.244 -3.996, 2.436 -3.282 Q 2.628 -2.568, 3.018 -1.932 Q 3.408 -1.296, 3.984 -0.852 L 3.984 0 L 0.816 0 L 0.564 -2.124 L 0.912 -2.124 Q 1.02 -1.716, 1.122 -1.464 Q 1.224 -1.212, 1.41 -1.092 Q 1.596 -0.972, 1.932 -0.972 L 3.024 -0.972 L 3.024 -1.044 Q 2.688 -1.296, 2.322 -1.626 Q 1.956 -1.956, 1.644 -2.388 Q 1.332 -2.82, 1.14 -3.39 Q 0.948 -3.96, 0.948 -4.692 Q 0.948 -5.688, 1.428 -6.438 Q 1.908 -7.188, 2.76 -7.608 Q 3.612 -8.028, 4.716 -8.028 Q 5.832 -8.028, 6.66 -7.608 Q 7.488 -7.188, 7.944 -6.438 Q 8.4 -5.688, 8.4 -4.704 Q 8.4 -3.972, 8.196 -3.402 Q 7.992 -2.832, 7.674 -2.394 Q 7.356 -1.956, 7.002 -1.626 Q 6.648 -1.296, 6.336 -1.044 L 6.336 -0.972 L 7.344 -0.972 Q 7.704 -0.972, 7.89 -1.092 Q 8.076 -1.212, 8.19 -1.47 Q 8.304 -1.728, 8.424 -2.124 L 8.772 -2.124 Z " /></symbol><use href="#STIXTwoMath-Regular_868" transform="translate(149.502 -82.872) scale(1.167)" fill="white" /></g></g></g><g><g><g><symbol id="STIXTwoMath-Regular_1196" width="658" height="51.216" viewBox="0 -31.524 658 51.216"><path d="M 7.896 -2.7 L 4.752 -2.7 L 4.752 0.48 L 3.888 0.48 L 3.888 -2.7 L 0.744 -2.7 L 0.744 -3.516 L 3.888 -3.516 L 3.888 -6.696 L 4.752 -6.696 L 4.752 -3.516 L 7.896 -3.516 Z " /></symbol><use href="#STIXTwoMath-Regular_1196" transform="translate(183.06 -105.338) scale(1.167)" fill="white" /></g></g></g><g><g><g><symbol id="STIXTwoMath-Regular_3350" width="479" height="51.216" viewBox="0 -31.524 479 51.216"><path d="M 2.4 -5.712 L 2.664 -5.712 L 2.1 -3.408 Q 2.016 -3.096, 1.926 -2.658 Q 1.836 -2.22, 1.836 -1.812 Q 1.836 -1.344, 2.028 -1.002 Q 2.22 -0.66, 2.772 -0.66 Q 3.384 -0.66, 3.828 -0.954 Q 4.272 -1.248, 4.554 -1.704 Q 4.836 -2.16, 4.974 -2.664 Q 5.112 -3.168, 5.112 -3.588 Q 5.112 -3.9, 5.004 -4.128 Q 4.896 -4.356, 4.746 -4.536 Q 4.596 -4.716, 4.488 -4.884 Q 4.38 -5.052, 4.38 -5.244 Q 4.38 -5.484, 4.512 -5.616 Q 4.644 -5.748, 4.836 -5.748 Q 5.244 -5.748, 5.496 -5.34 Q 5.748 -4.932, 5.748 -4.296 Q 5.748 -3.744, 5.61 -3.138 Q 5.472 -2.532, 5.196 -1.956 Q 4.92 -1.38, 4.512 -0.912 Q 4.104 -0.444, 3.576 -0.168 Q 3.048 0.108, 2.4 0.108 Q 1.8 0.108, 1.464 -0.132 Q 1.128 -0.372, 0.99 -0.768 Q 0.852 -1.164, 0.852 -1.62 Q 0.852 -2.052, 0.936 -2.508 Q 1.02 -2.964, 1.116 -3.336 L 1.356 -4.248 Q 1.38 -4.344, 1.428 -4.536 Q 1.476 -4.728, 1.476 -4.908 Q 1.476 -5.064, 1.416 -5.172 Q 1.356 -5.28, 1.188 -5.28 Q 1.044 -5.28, 0.84 -5.262 Q 0.636 -5.244, 0.636 -5.244 L 0.636 -5.58 Z " /></symbol><use href="#STIXTwoMath-Regular_3350" transform="translate(183.06 -85.707) scale(1.167)" fill="white" /><symbol id="STIXTwoMath-Regular_3342" width="460" height="51.216" viewBox="0 -31.524 460 51.216"><path d="M 5.52 -3.564 Q 5.52 -2.556, 5.106 -1.722 Q 4.692 -0.888, 3.96 -0.384 Q 3.228 0.12, 2.268 0.12 Q 1.572 0.12, 1.14 -0.192 Q 0.708 -0.504, 0.51 -1.008 Q 0.312 -1.512, 0.312 -2.1 Q 0.312 -2.796, 0.546 -3.45 Q 0.78 -4.104, 1.206 -4.62 Q 1.632 -5.136, 2.22 -5.442 Q 2.808 -5.748, 3.516 -5.748 Q 4.032 -5.748, 4.488 -5.502 Q 4.944 -5.256, 5.232 -4.77 Q 5.52 -4.284, 5.52 -3.564 Z M 4.428 -3.684 Q 4.428 -4.128, 4.326 -4.506 Q 4.224 -4.884, 4.002 -5.112 Q 3.78 -5.34, 3.42 -5.34 Q 2.904 -5.34, 2.442 -4.95 Q 1.98 -4.56, 1.692 -3.816 Q 1.404 -3.072, 1.404 -1.992 Q 1.404 -1.56, 1.488 -1.17 Q 1.572 -0.78, 1.788 -0.54 Q 2.004 -0.3, 2.4 -0.3 Q 3 -0.3, 3.456 -0.714 Q 3.912 -1.128, 4.17 -1.884 Q 4.428 -2.64, 4.428 -3.684 Z " /></symbol><use href="#STIXTwoMath-Regular_3342" transform="translate(189.766 -71.608) scale(0.817)" fill="white" /></g></g></g><g><g><g><symbol id="STIXTwoMath-Regular_1075" width="270" height="51.216" viewBox="0 -31.524 270 51.216"><path d="M 3.24 -2.616 L 0.54 -2.616 L 0.54 -3.396 L 3.24 -3.396 Z " /></symbol><use href="#STIXTwoMath-Regular_1075" transform="translate(183.06 -53.126) scale(1.167)" fill="white" /></g></g></g><circle cx="85.86" cy="-0.0" r="2.4299999999999997" style="stroke:white;fill:white;stroke-width:2;" /><g><g><g><symbol id="STIXTwoMath-Regular_4244" width="313" height="51.216" viewBox="0 -31.524 313 51.216"><path d="M 3.756 0 L 2.76 0 L 2.76 -6.348 L 1.212 -6.348 L 1.212 -6.996 Q 1.848 -7.092, 2.256 -7.23 Q 2.664 -7.368, 3 -7.56 L 3.756 -7.56 Z " /></symbol><use href="#STIXTwoMath-Regular_4244" transform="translate(52.596 -69.989) scale(1.167)" fill="white" /></g><g><symbol id="STIXTwoMath-Regular_896" width="557" height="51.216" viewBox="0 -31.524 557 51.216"><path d="M 5.472 -5.568 L 4.956 -2.604 Q 4.956 -2.556, 4.968 -2.376 Q 4.98 -2.196, 4.992 -2.064 Q 5.04 -1.38, 5.22 -1.074 Q 5.4 -0.768, 5.736 -0.768 Q 6.024 -0.768, 6.186 -0.912 Q 6.348 -1.056, 6.48 -1.236 L 6.684 -1.104 Q 6.588 -0.828, 6.414 -0.54 Q 6.24 -0.252, 5.97 -0.066 Q 5.7 0.12, 5.304 0.12 Q 4.86 0.12, 4.698 -0.162 Q 4.536 -0.444, 4.464 -0.864 Q 4.44 -1.044, 4.41 -1.266 Q 4.38 -1.488, 4.332 -1.968 L 4.26 -1.968 Q 4.068 -1.092, 3.798 -0.63 Q 3.528 -0.168, 3.222 -0.006 Q 2.916 0.156, 2.616 0.156 Q 2.292 0.156, 2.07 -0.018 Q 1.848 -0.192, 1.71 -0.426 Q 1.572 -0.66, 1.488 -0.828 L 1.428 -0.828 Q 1.44 -0.348, 1.452 0.102 Q 1.464 0.552, 1.506 1.068 Q 1.548 1.584, 1.62 2.292 L 0.72 2.604 L 0.528 2.568 Q 0.54 1.728, 0.57 1.038 Q 0.6 0.348, 0.678 -0.324 Q 0.756 -0.996, 0.9 -1.788 L 0.888 -5.64 L 1.968 -5.676 L 2.016 -5.58 L 1.584 -2.604 Q 1.584 -2.604, 1.578 -2.526 Q 1.572 -2.448, 1.572 -2.34 Q 1.572 -1.98, 1.71 -1.638 Q 1.848 -1.296, 2.094 -1.068 Q 2.34 -0.84, 2.664 -0.84 Q 2.988 -0.84, 3.252 -1.068 Q 3.516 -1.296, 3.72 -1.644 Q 3.924 -1.992, 4.062 -2.352 Q 4.2 -2.712, 4.272 -3 Q 4.344 -3.288, 4.344 -3.372 L 4.38 -5.64 L 5.412 -5.676 Z " /></symbol><use href="#STIXTwoMath-Regular_896" transform="translate(59.708 -69.989) scale(1.167)" fill="white" /></g><g><symbol id="STIXTwoMath-Regular_3664" width="479" height="51.216" viewBox="0 -31.524 479 51.216"><path d="M 1.104 0 L 1.104 -7.884 L 5.748 -7.884 L 5.748 -7.02 L 2.136 -7.02 L 2.136 -4.38 L 5.196 -4.38 L 5.196 -3.516 L 2.136 -3.516 L 2.136 0 Z " /></symbol><use href="#STIXTwoMath-Regular_3664" transform="translate(67.436 -69.989) scale(1.167)" fill="white" /></g></g></g></svg>